<svg xmlns="http://www.w3.org/2000/svg" xmlns:xlink="http://www.w3.org/1999/xlink" version="1.1" x="0px" y="0px" viewBox="0 0 100 125" style="enable-background:new 0 0 100 100;" xml:space="preserve"><g><path d="M55.7,44.1c-0.2,1.5-0.6,2.8-1.2,4c-0.6,1.2-1.4,2.2-2.3,3.1c-0.9,0.9-2,1.7-3.2,2.3c-1.2,0.6-2.4,1.1-3.7,1.4l11.6,15.3   c1.4,1.9,0.1,4.6-2.3,4.6h0c-0.9,0-1.8-0.4-2.3-1.1L42.1,59.9c-1.2-1.6-2.3-2.8-3.3-3.6c-0.5-0.4-1-0.6-1.5-0.8   c-1-0.4-1.7-1.3-1.7-2.4v0c0-1.4,1.1-2.5,2.5-2.5h1.2c1.3,0,2.6-0.1,3.8-0.3c1.2-0.2,2.3-0.5,3.3-1c1-0.5,1.8-1.1,2.4-2   c0.7-0.8,1-1.9,1.2-3.3H37.6c-1.4,0-2.3-1.5-1.7-2.7v0c0.3-0.6,1-1,1.7-1h12.2c-0.4-1.7-1.2-3.1-2.5-4.2c-1.3-1.1-3-1.6-5.1-1.7   h-4.6c-1.4,0-2.3-1.5-1.7-2.7v0c0.3-0.6,1-1,1.7-1h23.6c1.4,0,2.3,1.5,1.7,2.7v0c-0.3,0.6-1,1-1.7,1h-8.1c1.4,1.6,2.3,3.6,2.6,5.9   h5.5c1.4,0,2.3,1.5,1.7,2.7v0c-0.3,0.6-1,1-1.7,1H55.7z"/></g><g><path d="M70.2,22.1c3.5,2.5,6.4,5.6,8.8,9.1l0,0c0.3,0.5,0.9,0.8,1.6,0.8c1.1,0,1.9-0.9,1.9-1.9c0-0.3-0.1-0.7-0.2-0.9l0,0   c0,0,0,0,0,0c0-0.1-0.1-0.1-0.1-0.2c-2.6-3.9-5.9-7.3-9.8-10.1l0,0c-0.3-0.2-0.7-0.3-1-0.3c-1.1,0-1.9,0.9-1.9,1.9   C69.4,21.2,69.7,21.8,70.2,22.1z"/><path d="M86.3,37.2L86.3,37.2c-0.3-0.7-1-1.3-1.8-1.3c-1.1,0-1.9,0.9-1.9,1.9c0,0.2,0,0.4,0.1,0.6c1.3,3.6,2,7.6,2,11.7   c0,19-15.5,34.4-34.4,34.4c-19,0-34.4-15.5-34.4-34.4s15.5-34.4,34.4-34.4c4.7,0,9.2,0.9,13.2,2.6c0,0,0,0,0,0c0,0,0.1,0,0.1,0l0,0   c0.2,0.1,0.4,0.1,0.7,0.1c1.1,0,1.9-0.9,1.9-1.9c0-0.8-0.5-1.5-1.3-1.8l0,0c-4.5-1.9-9.5-2.9-14.6-2.9C29.2,11.9,12,29,12,50.2   c0,21.1,17.1,38.3,38.3,38.3s38.3-17.1,38.3-38.3C88.6,45.6,87.8,41.3,86.3,37.2z"/></g><text x="0" y="115" fill="#000000" font-size="5px" font-weight="bold" font-family="'Helvetica Neue', Helvetica, Arial-Unicode, Arial, Sans-serif">Created by jackie</text><text x="0" y="120" fill="#000000" font-size="5px" font-weight="bold" font-family="'Helvetica Neue', Helvetica, Arial-Unicode, Arial, Sans-serif">from the Noun Project</text></svg>